# xmcd CD database file
#
# Track frame offsets:
#	150
#	64095
#	101845
#	140815
#	183190
#
# Disc length: 2536 seconds
#
# Revision: 0
# Processed by: cddbd v1.5.1PL0 Copyright (c) Steve Scherf et al.
# Submitted via: CDex 1.51
#
DISCID=4609e605
DTITLE=Art Blakey and The Jazz Messengers - Meet You At The Jazz Corner Of The World Volume2
DYEAR=1960
DGENRE=Jazz
TTITLE0=High Modes
TTITLE1=Night Watch
TTITLE2=The Things I Love
TTITLE3=The Summit
TTITLE4=The Theme
EXTD=YEAR: 1960
EXTT0=
EXTT1=
EXTT2=
EXTT3=
EXTT4=
PLAYORDER=
